<?xml version="1.0" standalone="no"?>
<!DOCTYPE svg PUBLIC "-//W3C//DTD SVG 20010904//EN"
 "http://www.w3.org/TR/2001/REC-SVG-20010904/DTD/svg10.dtd">
<svg version="1.0" xmlns="http://www.w3.org/2000/svg"
 width="700.000000pt" height="700.000000pt" viewBox="0 0 700.000000 700.000000"
 preserveAspectRatio="xMidYMid meet">
<metadata>
Created by potrace 1.14, written by Peter Selinger 2001-2017
</metadata>
<g transform="translate(0.000000,700.000000) scale(0.100000,-0.100000)"
fill="#000000" stroke="none">
<path d="M3280 6994 c-19 -2 -84 -9 -145 -14 -578 -56 -1180 -283 -1660 -625
-237 -169 -531 -446 -709 -670 -416 -521 -673 -1147 -748 -1820 -17 -154 -17
-585 0 -730 83 -707 346 -1333 780 -1859 96 -116 301 -325 417 -425 531 -458
1161 -736 1880 -827 195 -25 615 -25 810 0 707 90 1324 357 1850 801 135 114
364 347 467 475 421 528 667 1112 754 1795 25 195 25 615 0 810 -90 707 -357
1324 -801 1850 -119 141 -349 366 -490 478 -509 408 -1117 662 -1775 743 -117
15 -553 27 -630 18z m-1100 -1659 l0 -165 -180 0 -180 0 0 -1665 0 -1665 180
0 180 0 0 -170 0 -170 -370 0 -370 0 0 2000 0 2000 370 0 370 0 0 -165z m3380
-1835 l0 -2000 -370 0 -370 0 0 170 0 170 180 0 180 0 0 1665 0 1665 -180 0
-180 0 0 165 0 165 370 0 370 0 0 -2000z m-2374 -868 c46 -24 94 -73 120 -122
28 -52 26 -171 -4 -227 -87 -164 -300 -192 -424 -55 -91 100 -83 265 16 361
71 69 203 88 292 43z m861 0 c52 -27 116 -100 131 -150 55 -182 -83 -356 -268
-339 -69 6 -127 34 -170 83 -46 53 -63 99 -62 175 1 155 118 266 273 255 30
-2 74 -13 96 -24z"/>
</g>
</svg>
