<?xml version="1.0" encoding="UTF-8"?>
<svg id="Layer_2" data-name="Layer 2" xmlns="http://www.w3.org/2000/svg" viewBox="0 0 270.97 270.97">
  <g id="Layer_1-2" data-name="Layer 1">
    <g>
      <circle cx="135.48" cy="135.48" r="135.48" style="fill: #009253; stroke-width: 0px;"/>
      <g>
        <path d="m84.36,58.01v13.01h-13.97v128.81h13.97v13.14h-28.78V58.01h28.78Z" style="fill: #cef186; stroke-width: 0px;"/>
        <path d="m111.76,185.29c-1.94-1.94-2.91-4.33-2.91-7.19s.97-5.26,2.91-7.19,4.33-2.91,7.19-2.91,5.12.97,7.06,2.91,2.91,4.34,2.91,7.19-.97,5.26-2.91,7.19c-1.94,1.94-4.29,2.91-7.06,2.91s-5.26-.97-7.19-2.91Z" style="fill: #cef186; stroke-width: 0px;"/>
        <path d="m145.1,185.29c-1.94-1.94-2.91-4.33-2.91-7.19s.97-5.26,2.91-7.19,4.33-2.91,7.19-2.91,5.12.97,7.06,2.91,2.91,4.34,2.91,7.19-.97,5.26-2.91,7.19c-1.94,1.94-4.29,2.91-7.06,2.91s-5.26-.97-7.19-2.91Z" style="fill: #cef186; stroke-width: 0px;"/>
        <path d="m215.38,212.96h-28.78v-13.14h13.97V71.01h-13.97v-13.01h28.78v154.96Z" style="fill: #cef186; stroke-width: 0px;"/>
      </g>
    </g>
  </g>
</svg>